<svg width="24" height="24" viewBox="0 0 24 24" fill="none" xmlns="http://www.w3.org/2000/svg">
    <g clip-path="url(#clip0_19_62)">
        <path fill-rule="evenodd" clip-rule="evenodd"
            d="M12 8.25C9.92893 8.25 8.25 9.92893 8.25 12C8.25 14.0711 9.92893 15.75 12 15.75C14.0711 15.75 15.75 14.0711 15.75 12C15.75 9.92893 14.0711 8.25 12 8.25V8.25ZM12 14.25C10.7574 14.25 9.75 13.2426 9.75 12C9.75 10.7574 10.7574 9.75 12 9.75C13.2426 9.75 14.25 10.7574 14.25 12C14.25 13.2426 13.2426 14.25 12 14.25V14.25ZM18.9103 14.9194C18.5881 15.6812 18.1421 16.3844 17.5903 17.0006C17.3123 17.3014 16.8445 17.3236 16.5393 17.0504C16.2341 16.7772 16.2045 16.3098 16.4728 16.0003C18.5119 13.7236 18.5119 10.2774 16.4728 8.00062C16.289 7.80176 16.2267 7.51926 16.3098 7.26152C16.3928 7.00379 16.6084 6.81084 16.8737 6.75672C17.139 6.7026 17.4129 6.7957 17.5903 7.00031C19.5233 9.1633 20.0372 12.2464 18.9103 14.9194V14.9194ZM6.46875 9.66469C5.56546 11.803 5.97658 14.2704 7.52437 16.0003C7.79265 16.3098 7.76306 16.7772 7.45789 17.0504C7.15273 17.3236 6.68485 17.3014 6.40688 17.0006C3.85725 14.1547 3.85725 9.84622 6.40688 7.00031C6.6831 6.69095 7.15782 6.66408 7.46719 6.94031C7.77655 7.21654 7.80342 7.69126 7.52719 8.00062C7.08469 8.49289 6.72701 9.05523 6.46875 9.66469V9.66469ZM23.25 12C23.2545 14.9454 22.0998 17.7742 20.0353 19.875C19.8494 20.0738 19.5704 20.1562 19.3062 20.0904C19.0421 20.0246 18.8344 19.8209 18.7635 19.5581C18.6925 19.2953 18.7696 19.0148 18.9647 18.825C22.6834 15.0363 22.6834 8.96747 18.9647 5.17875C18.6737 4.88311 18.6775 4.40755 18.9731 4.11656C19.2688 3.82558 19.7443 3.82936 20.0353 4.125C22.0998 6.22578 23.2545 9.05462 23.25 12V12ZM5.03531 18.8231C5.22321 19.0144 5.29481 19.2913 5.22313 19.5497C5.15146 19.808 4.94739 20.0085 4.68782 20.0756C4.42824 20.1427 4.15259 20.0662 3.96469 19.875C-0.329686 15.5032 -0.329686 8.49683 3.96469 4.125C4.15061 3.92621 4.42965 3.84376 4.69376 3.90957C4.95787 3.97537 5.1656 4.1791 5.23653 4.44188C5.30745 4.70466 5.23044 4.98524 5.03531 5.175C1.31661 8.96372 1.31661 15.0325 5.03531 18.8213V18.8231Z"
            fill="#0D141C" />
    </g>
    <defs>
        <clipPath id="clip0_19_62">
            <rect width="24" height="24" fill="white" />
        </clipPath>
    </defs>
</svg>
    